<svg width="28" height="28" viewBox="0 0 28 28" fill="none" xmlns="http://www.w3.org/2000/svg">
<path id="Subtract" fill-rule="evenodd" clip-rule="evenodd" d="M16.5002 4.66916L14 0L11.4998 4.66916L7 1.87564L7.16935 7.16935L1.87564 7L4.66916 11.4998L0 14L4.66916 16.5002L1.87564 21L7.16935 20.8307L7 26.1244L11.4998 23.3308L14 28L16.5002 23.3308L21 26.1244L20.8307 20.8307L26.1244 21L23.3308 16.5002L28 14L23.3308 11.4998L26.1244 7L20.8307 7.16935L21 1.87564L16.5002 4.66916ZM20.2803 11.2804C20.5732 10.9875 20.5732 10.5126 20.2803 10.2197C19.9874 9.92684 19.5125 9.92684 19.2196 10.2197L12.7499 16.6894L9.28026 13.2197C8.98737 12.9268 8.5125 12.9268 8.2196 13.2197C7.92671 13.5126 7.92671 13.9875 8.2196 14.2804L12.2196 18.2804C12.5125 18.5733 12.9874 18.5733 13.2803 18.2804L20.2803 11.2804Z" fill="#00C2FF"/>
</svg>
