<svg width="20" height="21" viewBox="0 0 20 21" fill="none" xmlns="http://www.w3.org/2000/svg">
<path id="Subtract" fill-rule="evenodd" clip-rule="evenodd" d="M11.7859 3.83511L10 0.5L8.21415 3.83511L5 1.83975L5.12096 5.62096L1.33975 5.5L3.33511 8.71415L0 10.5L3.33511 12.2859L1.33975 15.5L5.12096 15.379L5 19.1603L8.21415 17.1649L10 20.5L11.7859 17.1649L15 19.1603L14.879 15.379L18.6603 15.5L16.6649 12.2859L20 10.5L16.6649 8.71415L18.6603 5.5L14.879 5.62096L15 1.83975L11.7859 3.83511ZM14.4859 8.55743C14.6951 8.34822 14.6951 8.00903 14.4859 7.79982C14.2767 7.59061 13.9375 7.59061 13.7283 7.79982L9.1071 12.421L6.62876 9.94267C6.41955 9.73347 6.08036 9.73347 5.87115 9.94267C5.66194 10.1519 5.66194 10.4911 5.87115 10.7003L8.72829 13.5574C8.9375 13.7666 9.2767 13.7666 9.48591 13.5574L14.4859 8.55743Z" fill="white"/>
</svg>
